<svg width="600" height="240" viewBox="0 0 600 240" fill="none" xmlns="http://www.w3.org/2000/svg">
<g clip-path="url(#clip0_3623_4101)">
<path d="M333.743 191.449C333.309 192.051 334.008 191.864 334.586 191.7C335.165 191.541 336.042 190.837 335.945 190.345C335.714 189.174 334.177 190.847 333.743 191.449Z" fill="#F8F4E6"/>
<path d="M258.738 183.093C259.042 183.262 259.283 183.431 259.533 183.513C259.635 183.546 259.823 183.421 259.876 183.291C259.919 183.18 259.856 182.93 259.789 182.795C259.553 182.346 259.172 182.424 258.738 183.093V183.093Z" fill="#F8F4E6"/>
<path d="M271.206 159.002C271.697 158.279 272.463 158.486 272.647 156.819C272.83 155.152 272.064 156.631 271.895 156.409C271.577 157.359 270.671 158.78 271.206 159.002V159.002Z" fill="#F8F4E6"/>
<path d="M334.167 183.122C331.507 183.137 328.644 183.122 325.864 183.098V182.708C325.864 182.708 325.864 164.304 325.864 161.538C325.864 160.362 325.517 159.181 325.435 158.342C325.386 157.87 325.531 157.08 325.661 156.482C325.782 155.938 325.656 155.379 325.319 154.935C324.456 153.803 322.794 151.75 322.109 151.702C320.211 151.567 321.03 151.316 319.555 150.68C315.141 148.786 306.553 144.459 306.351 144.545C306.351 144.545 309.132 146.55 314.163 151.47C316.741 153.991 318.076 155.61 318.751 156.617C319.42 157.624 317.589 157.287 317.589 159.971V182.997C314.066 182.944 311.483 182.896 310.924 182.91C309.744 182.934 308.409 183.238 307.401 183.238C306.394 183.238 305.599 182.983 305.599 182.983C304.847 182.983 304.814 183.156 304.534 183.445L303.845 184.163L303.339 168.66C303.324 168.251 303.271 167.841 303.18 167.441C302.741 165.547 301.402 159.913 301.016 160.203C300.322 161.186 301.493 164.578 299.975 164.255C300.004 163.889 299.946 162.752 299.884 163.215C299.792 163.909 299.696 164.641 299.407 165.268C299.002 166.222 297.421 166.766 297.421 167.769L296.886 184.033C296.496 183.44 295.739 182.525 294.824 182.597C293.484 182.703 289.344 182.944 287.498 182.925C286.973 182.92 285.397 182.949 283.142 182.978V162.95C283.142 159.051 282.742 158.029 284.308 155.533C284.771 154.796 284.906 154.8 285.32 154.415C285.715 154.049 285.099 152.145 285.956 151.774C286.723 151.441 288.906 149.654 288.906 149.654C288.906 149.654 284.92 151.374 285.503 150.786C285.985 150.295 286.872 149.042 287.609 148.622L294.284 144.772C292.766 145.234 289.204 146.613 287.845 147.504L287.537 147.745C286.964 147.263 286.906 147.808 286.395 147.952C283.614 148.945 281.017 150.54 278.357 152.02C276.362 152.338 274.723 153.721 274.019 155.316C274.174 155.624 274.357 155.909 274.511 156.198C274.525 156.227 274.545 156.256 274.554 156.28C274.93 156.979 275.321 157.061 275.634 157.123C275.86 157.171 276.101 157.215 276.169 157.523C276.53 159.123 276.79 161.398 276.79 161.971C276.79 162.468 276.776 162.95 276.761 163.528C276.718 164.771 276.761 172.058 276.786 177.383C276.795 179.682 276.805 181.566 276.805 182.346C276.805 183.903 276.583 184.028 276.511 184.067C276.482 184.086 276.443 184.096 276.414 184.096C276.386 184.096 276.347 184.086 276.313 184.067C275.99 183.879 275.884 182.404 275.894 181.089C275.933 176.351 275.899 166.8 275.624 163.282C275.571 162.603 275.552 162.463 275.465 162.077C275.33 161.494 275.007 162.337 274.954 163.2C274.906 163.957 274.872 165.104 274.863 165.976V183.04C273.142 183.04 271.326 183.04 269.451 183.016C268.53 183.007 267.114 182.404 266.362 182.395C265.769 182.39 262.955 182.626 262.487 182.621C261.229 182.607 260.487 182.602 260.487 182.602C260.487 182.602 262.275 183.426 261.856 183.758C261.899 185.175 263.928 187.691 264.685 188.423C265.788 189.498 266.849 189.71 268.265 189.57C269.277 189.469 271.745 189.011 274.858 188.457V196.683C274.945 197.946 274.795 198.052 274.265 199.305C273.258 201.7 276.477 202.852 278.501 204.196C279.277 204.616 280.94 203.276 282.626 201.705C282.925 201.425 283.224 201.141 283.518 200.857C284.106 200.288 284.679 199.724 285.195 199.238C285.195 199.238 283.132 200.245 283.132 198.009V187.084C287.667 186.404 292.236 185.898 295.32 186.057C296.178 186.101 297.527 186.274 298.713 186.52C299.585 186.746 298.293 186.905 297.72 187.156C297.113 187.421 296.746 189.05 296.66 190.472L296.13 206.601C294.93 206.004 290.949 205.661 289.33 204.823C287.706 203.984 285.595 205.719 284.742 205.382C283.094 204.726 280.785 204.765 280.785 204.765C280.785 204.765 285.156 206.558 287.845 208.519L293.821 212.206C295.725 212.77 297.513 213.637 299.276 214.543C299.961 214.895 300.669 215.03 301.228 214.606C303.32 213.671 307.695 212.283 307.695 212.283C307.695 212.283 311.7 210.215 315.213 208.567C315.324 208.5 315.449 208.428 315.608 208.341C316.852 207.657 316.881 207.425 316.881 207.416C316.765 207.31 315.83 207.425 315.377 207.657C315.155 207.767 311.31 209.56 311.054 209.637C310.606 209.777 310.515 209.782 310.322 209.787C310.182 209.787 309.989 209.796 309.469 209.878C309.411 209.888 309.348 209.897 309.286 209.897C309.189 209.897 309.107 209.873 309.079 209.777C309.021 209.57 309.117 209.488 312.587 208.032C313.941 207.464 315.339 206.881 315.955 206.558C317.531 205.729 318.307 206.018 319.054 206.293C319.44 206.432 319.811 206.567 320.283 206.534C323.126 206.293 325.965 204.476 325.849 203.175C325.439 197.633 325.849 194.765 325.849 190.452V188.852C329.786 189.194 334.075 189.729 334.663 188.746C335.386 187.537 335.791 186.843 336.167 186.284C336.923 185.161 337.063 183.768 337.873 183.946C339.347 184.269 341.863 182.766 341.974 182.708C341.974 182.708 338.196 183.103 334.152 183.122H334.167ZM308.158 210.365C307.864 210.914 307.406 211.093 306.963 211.227C306.953 211.227 306.944 211.227 306.934 211.227C306.785 211.227 306.688 211.141 306.654 211.011C306.597 210.799 306.703 210.495 307.001 210.341C307.175 210.249 307.96 209.994 308.134 210.167L308.211 210.24L308.163 210.36L308.158 210.365ZM317.584 197.117C317.584 198.385 317.604 200.293 315.951 200.635C313.44 201.753 304.563 206.379 304.563 206.379L303.859 184.852C304.327 185.122 305.026 185.672 305.421 186.693C305.618 187.195 306.105 187.522 306.645 187.566C308.992 187.768 313.758 188.076 317.584 188.317V197.112V197.117Z" fill="#F8F4E6"/>
<path d="M10.851 14.6741C7.86313 17.8885 19.2073 23.5847 19.3134 22.698C19.4242 21.8113 11.9931 13.6814 10.851 14.6741V14.6741Z" fill="#F8F4E6"/>
<path d="M150.239 118.145C149.955 118.03 149.873 117.663 150.08 117.432L159.53 106.907L159 18.8425L159.781 14.3993C159.877 13.8402 159.844 13.2716 159.675 12.7318L157.819 6.76576C157.612 6.0959 156.904 5.71519 156.229 5.90796L154.022 6.54408L153.593 6.0959C153.261 5.75375 152.808 5.55616 152.331 5.55616H150.996C150.996 5.55616 149.598 5.55616 149.309 5.55616C149.184 5.55616 148.894 5.45496 148.605 5.34412C148.104 5.14654 147.55 5.16099 147.054 5.36822L146.605 5.55616C145.526 5.55616 144.519 5.00196 143.94 4.08633L142.297 1.47437L143.136 8.22596C143.14 8.26933 143.15 8.31752 143.155 8.36089C143.367 9.89337 144.461 10.3464 145.42 10.7512C146.056 11.0162 146.605 11.2475 146.726 11.7728C147.415 14.833 147.916 19.1798 147.916 20.2786C147.916 21.3099 147.887 22.3171 147.858 23.252C147.791 25.3001 147.834 28.2446 147.882 31.3626C147.911 33.43 147.945 35.5697 147.945 37.531C147.945 40.5044 147.526 40.7454 147.386 40.8225C147.328 40.8562 147.261 40.8755 147.198 40.8755C147.135 40.8755 147.063 40.8562 147.005 40.8225C146.384 40.4611 146.186 37.6419 146.205 35.1263C146.244 30.0903 146.321 20.7605 145.338 20.2979C144.962 20.5581 144.596 23.8977 144.552 27.7627V109.355C144.552 109.808 144.972 110.141 145.41 110.04L155.559 107.712C155.887 107.635 156.07 108.073 155.791 108.256L154.721 109.187C151.381 112.093 147.685 114.56 143.719 116.526L140.524 118.112C139.454 118.801 139.02 120.145 139.488 121.331C140.075 122.825 140.369 124.42 140.355 126.025L140.341 128.318C140.341 128.926 140.615 129.499 141.102 129.865C142.157 130.67 143.998 132.024 144.557 132.159C145.203 132.314 148.36 132.217 149.545 132.179C149.839 132.169 150.128 132.102 150.403 131.986L151.338 131.581C152.514 131.07 153.796 130.844 155.077 130.926C158.595 131.152 166.759 131.306 176.277 128.945C176.277 128.945 175.896 123.663 176.277 123.08C176.657 122.502 176.672 120.569 176.277 119.991C175.882 119.413 181.033 116.141 181.033 116.141C181.033 116.141 170.142 118.96 159.203 118.96C153.304 118.96 151.092 118.487 150.258 118.15L150.239 118.145Z" fill="#F8F4E6"/>
<path d="M129.261 121.711C128.567 117.972 128.216 114.174 128.216 110.367V19.6714C128.216 16.6594 127.845 13.6619 127.107 10.7464L126.823 9.62832C126.057 6.5971 129.054 4.80438 129.054 4.80438C129.054 4.80438 125.796 5.5658 121.069 5.5658H113.58C114.351 7.05491 114.496 8.79462 113.97 10.3946L113.893 10.6307C113.686 11.262 113.58 11.9174 113.58 12.5824V108.155C113.58 109.485 113.19 110.791 112.462 111.905C111.725 113.032 111.469 114.406 111.744 115.726L114.524 128.911C115.04 131.345 117.421 132.906 119.859 132.405L128.722 130.579C129.888 130.338 130.649 129.205 130.432 128.034L129.257 121.711H129.261Z" fill="#F8F4E6"/>
<path d="M229.084 18.1245C227.87 16.6932 225.846 14.886 225.846 14.886C219.668 8.71273 211.504 4.87671 202.796 4.20203C192.247 3.38278 185.447 5.81162 180.647 3.45025C180.281 3.27194 179.346 5.51765 179.457 5.908C179.847 7.29109 179.809 8.7561 179.337 10.1151L178.354 12.9487C177.77 14.6354 178.074 16.5004 179.163 17.9124C179.978 18.9678 181.158 19.6714 182.469 19.8883C186.411 20.5389 193.828 23.8303 197.322 27.6808C198.897 29.4157 195.577 28.4904 194.816 28.2784C194.488 28.1868 193.317 27.9169 192.083 27.6422C191.346 27.5651 190.821 27.6326 190.609 27.8446C190.503 27.9507 190.469 28.1049 190.498 28.3121C191.013 31.9987 190.854 39.1214 190.763 43.3767C190.739 44.514 190.719 45.42 190.719 45.9742C190.719 50.2969 190.719 63.4531 190.315 67.2747C190.223 68.1373 190.127 68.5277 189.799 68.5277H189.775C188.854 68.4795 188.666 60.1424 188.666 60.0557C188.666 56.9377 188.556 53.8245 187.992 47.1549C187.741 43.1454 188.112 39.078 188.411 35.8058C188.71 32.5047 188.97 29.6422 188.329 29.0639C188.286 29.0591 188.271 29.0639 188.266 29.0735C188.059 29.2229 188.026 30.1 188.006 30.6253C187.977 31.4397 187.958 32.0373 187.529 32.0807L187.447 32.1096L187.279 32.0421C187.071 31.9216 187.028 31.618 186.951 31.1217C186.883 30.6687 186.753 29.8398 186.483 29.8205C186.228 29.8735 186.035 30.2831 185.915 30.765C185.881 30.9964 185.852 31.2277 185.852 31.4638L185.669 123.384C185.645 123.432 185.616 123.475 185.592 123.509C184.749 124.521 185.929 126.372 185.592 126.878C185.255 127.384 184.633 131.726 185.283 132C185.929 132.27 190.811 132.159 192.498 131.755C194.184 131.35 197.972 132.15 201.596 130.15H213.037C221.35 127.649 229.113 116.035 229.113 116.035V34.23C229.113 30.2301 227.682 29.3482 227.913 25.5845C228.068 23.0785 229.113 18.1293 229.113 18.1293L229.084 18.1245ZM190.613 73.0818L190.594 73.1733L190.43 73.3083C190.271 73.448 190.054 73.636 189.703 73.636C189.678 73.636 189.659 73.636 189.635 73.636L189.418 73.6215L189.385 73.4046C189.279 72.7059 188.985 70.4071 189.654 70.1421C189.881 70.0505 190.112 70.171 190.334 70.4987C190.859 70.9854 190.71 72.6962 190.618 73.0818H190.613ZM214.449 111.394C214.449 113.413 213.538 115.331 211.972 116.603C210.772 117.582 209.273 118.116 207.726 118.116H200.271V28.5049C200.271 28.5049 198.657 24.7122 186.141 17.9413C185.785 17.7486 185.804 17.2281 186.175 17.0643C188.96 15.8595 198.382 12.8861 214.444 18.7269V111.394H214.449Z" fill="#F8F4E6"/>
<path d="M100.968 6.39937L100.771 6.16805C99.7396 4.95845 98.1541 4.37052 96.5782 4.61629L89.87 5.66686C88.9833 5.80662 88.4821 6.75598 88.8628 7.5656L90.458 10.9293L89.1809 14.6063C88.6074 16.2641 88.3568 18.0135 88.4436 19.7676L88.6026 22.8856C88.6219 23.2759 88.6171 23.6663 88.5833 24.0566L81.5667 104.02C81.5281 104.444 80.9113 104.444 80.8727 104.02L71.7694 11.5847C71.6827 10.7269 71.2538 9.94142 70.5743 9.4065L67.0563 6.6355C65.731 5.58976 63.8227 5.76806 62.7095 7.03549L60.0252 10.0908C59.2493 10.9775 58.7674 12.0811 58.6566 13.2522L50.1074 101.336C50.0689 101.755 49.452 101.755 49.4135 101.336L41.6451 22.1097L41.3366 14.6545C41.221 11.8064 39.0042 7.23308 38.4982 4.79942C38.0596 2.679 36.2717 3.11273 33.067 4.00426C30.9948 4.58256 29.1876 5.86926 27.9829 7.64752L24.3107 13.0739C23.024 14.9726 22.6336 17.334 23.2312 19.5459L23.4336 20.2929L24.1757 22.5193C24.4938 24.2831 25.6311 25.9072 26.0745 26.2108C26.0745 25.9843 25.9444 25.4542 25.8143 24.9434C25.5781 23.9988 25.3082 22.9241 25.4239 22.2832C25.4817 21.9651 25.7034 21.9314 25.7709 21.9266C25.7709 21.9266 25.7757 21.9266 25.7805 21.9266C26.6528 21.9266 28.484 27.3385 28.6286 27.8396C29.0431 29.2806 29.443 30.5865 29.8238 31.8154C31.1972 36.2972 32.2863 39.8344 32.614 45.227C32.6237 45.8102 32.7104 46.5619 32.8068 47.3619C32.9706 48.7835 33.1441 50.2534 32.9562 51.2076C32.8887 51.5497 32.6863 51.5931 32.5899 51.5931H32.5803C31.5876 51.5642 29.9683 42.6054 29.4623 38.8706C29.2937 37.6128 28.4985 34.6105 28.2865 34.6973C28.1467 34.7551 28.5274 35.9454 28.6045 36.5815L40.0355 126.415C40.1945 127.653 40.8933 128.757 41.9439 129.427L45.1389 131.465C46.2762 132.188 47.6882 132.328 48.9412 131.831L49.8183 131.485C51.3219 130.892 52.3532 129.494 52.4688 127.885L59.524 32.9624C59.5626 32.4612 60.2903 32.4515 60.3433 32.9527L67.1768 101.857C67.3214 105.693 67.8225 120.632 67.143 123.711C66.3575 127.248 66.9888 125.861 68.5069 128.261C70.0249 130.66 73.0561 133.692 75.2054 133.692C77.3548 133.692 91.1278 129.735 92.8964 127.48C94.6651 125.229 90.7519 121.49 92.3952 107.442L101.431 30.3745C101.995 25.565 102.838 20.7941 103.961 16.0858L104.472 13.9317L108.274 -0.000427246L104.978 5.98974C104.154 7.49331 102.082 7.70053 100.968 6.39937ZM32.5996 53.8918C32.7201 53.3858 32.9369 53.1304 33.2502 53.1304C33.467 53.1304 33.6646 53.222 33.8236 53.3955C34.4357 54.0701 34.3778 56.0652 34.2188 57.6266C34.2092 57.7616 34.2188 57.9784 34.2381 58.2194C34.2959 59.1447 34.3055 59.7663 33.9586 59.9976C33.9056 60.0314 33.8188 60.0748 33.7032 60.0748C33.626 60.0748 33.5345 60.0555 33.4333 60.0025C32.6478 59.6073 32.2622 55.3327 32.5996 53.8966V53.8918ZM34.6766 63.9349L34.6622 64.1035L34.4983 64.1614C34.4501 64.1806 34.4019 64.1855 34.3586 64.1855C34.1417 64.1855 33.9875 64.0023 33.9007 63.8963C33.8622 63.8481 33.8188 63.7999 33.7899 63.7758C33.1249 63.2409 33.361 62.2 33.7369 61.6313L33.7754 61.588C34.0357 61.3325 34.2477 61.3807 34.3537 61.4289C34.4887 61.4916 34.8983 61.6892 34.6814 63.9301L34.6766 63.9349ZM90.1881 114.945C89.8026 118.699 89.0122 125.008 88.058 125.051H88.0388C87.6484 125.051 87.5376 124.482 87.4894 124.208C87.1135 122.232 87.2725 120.82 88.0436 114.034C88.2122 112.555 88.4098 110.815 88.6363 108.762L89.7303 103.432C89.8941 102.69 90.0001 101.336 90.1062 100.03C90.3809 96.5796 90.5351 95.6447 91.0989 95.6447H91.2194L91.3495 95.7604C91.9615 96.435 91.0604 106.565 90.1977 114.945H90.1881ZM91.5374 94.2712C91.5085 94.2809 91.4796 94.2857 91.4459 94.2857C91.335 94.2857 91.2097 94.2327 91.1182 94.0785C90.4821 92.999 90.5543 91.6786 91.3399 90.1557C91.4218 89.9919 91.6194 89.6256 91.9374 89.6883C92.2459 89.7605 92.3037 90.1702 92.3133 90.6039C92.3278 91.1099 92.1736 94.0881 91.5374 94.2761V94.2712Z" fill="#F8F4E6"/>
<path d="M22.1416 39.6709C22.1416 40.5143 24.9174 43.8732 25.4909 42.8034C25.8732 42.0901 26.1768 41.4267 26.4017 40.8131C26.4017 40.8131 25.0042 37.3337 24.3632 36.5578C23.7223 35.7819 22.1416 38.8276 22.1416 39.6709V39.6709Z" fill="#F8F4E6"/>
<path d="M204.16 31.6227C204.555 31.4058 203.683 30.9094 203.216 30.5095C202.748 30.1095 202.04 29.8251 201.886 29.9263C201.447 30.2155 202.392 31.3287 202.685 32.0805C202.979 32.8323 203.765 31.8347 204.16 31.6227V31.6227Z" fill="#F8F4E6"/>
<path d="M580.963 15.0646C582.52 14.1153 584.703 20.1536 586.529 22.7319C585.647 22.756 587.888 26.3318 583.989 22.7656C580.091 19.1995 582.038 17.6284 581.117 15.0357L580.963 15.0646Z" fill="#F8F4E6"/>
<path d="M589.762 30.4183C589.916 30.7797 588.789 30.8423 588.61 30.6544C588.398 30.2785 587.83 29.4593 588.326 29.1075C588.822 28.7508 589.608 30.0568 589.762 30.4183Z" fill="#F8F4E6"/>
<path d="M363.316 5.00676C363.895 4.9923 364.873 4.54412 364.897 4.06221C364.955 2.92008 363.138 4.11522 362.589 4.57786C362.044 5.03567 362.738 5.02122 363.316 5.01158V5.00676Z" fill="#F8F4E6"/>
<path d="M343.052 130.66C344.257 130.54 345.707 130.097 346.189 129.817C345.939 129.759 345.36 129.692 344.035 129.745C343.457 129.754 343.081 129.639 342.652 129.494C342.011 129.277 341.139 128.983 338.932 128.983C336.903 128.983 336.657 128.964 336.373 128.945C336.165 128.93 335.939 128.916 334.927 128.901C334.623 128.897 334.088 128.935 333.534 128.979C331.525 129.133 330.18 129.195 329.78 128.718C329.597 128.497 329.64 128.313 329.684 128.222C329.857 127.856 330.435 127.841 332.108 127.865C333.404 127.88 335.023 127.899 336.339 127.62C338.768 127.094 342.194 127.35 345.505 127.595C349.182 127.87 352.974 128.15 353.731 127.041L354.815 124.882L353.948 118.873H333.322V68.5467L336.58 73.9634C337.105 74.8357 338.368 75.5489 339.385 75.5489H354.483L355.186 72.8647C355.582 71.0382 356.266 68.9033 357.972 67.2889L358.82 65.7034L359.572 64.3011H338.127C336.97 64.3011 335.293 64.8987 334.402 65.6312L333.322 66.5131V25.2132L330.7 23.8927C328.325 22.6976 326.137 21.1603 324.204 19.329L322.619 17.8303C322.156 17.5219 322.281 16.8038 322.826 16.6785C324.966 16.187 329.288 15.3773 337.071 15.3773C344.854 15.3773 349.037 16.9243 351.215 17.9604C352.502 18.5724 353.991 18.6206 355.341 18.1339C356.671 17.652 357.62 16.4665 357.943 15.0882L359.591 8.11011C359.712 7.60892 359.899 7.12701 360.155 6.68365L361.022 5.17526L357.437 5.57043C356.463 5.67645 355.485 5.44995 354.656 4.92949C354.656 4.92949 349.134 5.24755 337.076 5.24755C328.913 5.24755 324.262 4.12951 321.862 3.41146C320.71 3.06449 319.472 3.18978 318.412 3.75362L314.253 6.59209C313.588 6.9487 313.274 7.72458 313.496 8.44263L314.749 12.4232C314.937 13.016 315.192 13.5895 315.511 14.1244L317.766 17.9122C318.127 18.5194 318.633 19.0302 319.236 19.3965L328.484 25.0349C328.937 25.2758 328.917 25.7433 328.488 26.0662L328.146 26.3553C327.028 27.295 324.301 30.1239 324.156 30.9528C324.036 31.6515 323.737 34.1864 323.727 36.3164V37.0779C323.722 38.991 323.703 39.7814 323.313 40.0513C323.178 40.1476 323.004 40.1621 322.831 40.0994C322.508 39.979 322.59 39.5163 322.542 38.3838C322.421 35.449 322.142 35.1839 321.92 35.3478C321.718 35.4924 321.79 37.0923 321.771 38.4417C321.669 45.8728 322.065 60.7976 322.392 69.6889C322.402 69.7515 322.725 78.397 321.534 78.6524C321.501 78.6573 321.472 78.6621 321.443 78.6621C321.081 78.6621 320.85 78.1705 320.619 77.438C320.262 72.7683 320.224 66.6094 320.185 60.6578C320.132 52.5665 320.079 44.1957 319.284 39.0537C318.927 37.0345 318.691 39.5645 318.691 43.5017V120.743L318.219 125.335C317.959 126.309 317.992 127.34 318.315 128.294L318.691 131.277L325.703 130.212C326.455 130.015 327.24 130.376 327.997 130.54L333.327 130.901H341.495C341.77 130.824 342.233 130.747 343.061 130.665L343.052 130.66ZM321.534 86.0691L321.467 86.1654L321.351 86.1847C321.351 86.1847 321.303 86.1895 321.279 86.1895C321.168 86.1895 321.062 86.1462 320.975 86.0691C320.58 85.7173 320.595 84.5028 320.657 82.8258C320.677 82.3487 320.701 81.7559 320.667 81.6355L320.633 81.568L320.648 81.5102C320.667 81.3126 320.995 80.7343 321.303 80.5753C321.491 80.4789 321.64 80.5319 321.718 80.5753C321.968 80.7198 322.021 81.0909 322.098 81.6499C322.142 81.9439 322.185 82.2764 322.267 82.5511C322.465 83.4619 322.074 85.2932 321.534 86.0739V86.0691ZM323.491 45.4294C323.457 45.439 323.424 45.439 323.39 45.439C323.052 45.439 322.759 45.068 322.599 44.6728C322.387 44.1331 322.363 43.3716 323.004 42.9957L323.038 42.9813C323.134 42.9427 323.24 42.9475 323.337 42.9957C323.679 43.1692 323.93 44.0318 323.93 44.0367C323.958 44.3836 324.026 45.3041 323.486 45.4294H323.491Z" fill="#F8F4E6"/>
<path d="M244.684 62.7545C244.675 63.5641 244.583 65.0725 245.118 65.805C245.494 66.3207 248.01 66.2918 248.699 66.2918C249.393 66.2918 248.125 63.2846 247.518 62.8654C246.858 62.4124 244.689 61.9449 244.684 62.7545Z" fill="#F8F4E6"/>
<path d="M350.503 129.663C349.795 129.779 349.351 129.856 349.105 129.957C350.527 130.333 352.513 130.189 353.635 130.03C354.411 129.948 354.426 129.832 353.949 129.336C353.351 129.263 352.729 129.263 352.103 129.384C351.467 129.504 350.937 129.591 350.498 129.663H350.503Z" fill="#F8F4E6"/>
<path d="M360.816 97.1337C360.478 98.0252 358.623 96.6036 357.866 96.4204C357.452 96.3241 356.883 96.5987 356.387 96.965C355.977 97.2638 355.611 97.6204 355.423 97.8662C355.423 97.8662 357.616 98.7674 359.129 99.1288C360.647 99.4902 361.153 96.2421 360.816 97.1337V97.1337Z" fill="#F8F4E6"/>
<path d="M302.808 27.6039C302.808 25.71 302.861 23.8161 302.962 21.9222L303.135 18.6934C303.174 18.0187 303.179 17.344 303.15 16.6693L302.808 7.44555V5.55163L298.943 5.75403C296.668 5.87451 294.389 5.87451 292.114 5.75403L288.167 5.55163L287.897 7.20941C287.575 9.20934 287.536 11.243 287.787 13.2526L288.003 14.9778C288.114 15.8501 288.167 16.732 288.167 17.6139V62.8655H271.026V26.5437C271.026 21.4162 271.459 16.2983 272.322 11.243L272.871 8.02866C272.948 7.58048 272.679 7.14676 272.245 7.01664L265.758 5.03598C263.219 4.26011 260.544 4.00469 257.903 4.28902L255.725 4.52034C255.166 4.57817 254.795 5.13237 254.959 5.67211L255.383 7.09857L256.636 10.3467C256.776 10.7129 256.968 10.8575 257.098 10.8623C257.233 10.8527 257.421 10.6358 257.527 10.178C257.628 9.75391 257.71 9.26717 257.792 8.80454C258.043 7.36844 258.168 6.73232 258.592 6.68894C258.954 6.66003 259.127 7.09857 259.204 7.29133C259.84 8.86719 259.889 18.9392 259.86 24.804C259.86 25.2859 259.86 25.763 259.85 26.2401L259.836 27.6666C259.826 29.4063 259.778 30.5291 259.734 31.6183C259.643 33.9748 259.561 36.0085 259.865 43.4781C259.865 44.0516 260.057 44.8949 260.245 45.7142C260.424 46.4949 260.587 47.2322 260.607 47.7575C260.809 54.2826 260.636 61.9209 259.479 61.9836C259.469 61.9836 259.46 61.9836 259.45 61.9836C259.166 61.9836 258.886 61.7378 258.771 60.1619C258.669 58.7933 258.578 57.8295 258.506 57.0199C258.371 55.5597 258.284 54.5958 258.236 52.6345L257.99 39.1554C257.942 38.871 257.277 32.6206 257.426 28.0762L257.32 21.0837C257.282 19.8162 256.39 17.3729 256.39 18.5681V62.8751H251.021L253.378 72.8073C253.508 73.3567 253.792 73.8627 254.192 74.2579L256.395 76.4313V113.341C256.395 116.522 256.245 119.707 255.942 122.873L255.359 129.032C255.301 129.668 255.72 130.246 256.342 130.386L260.081 131.23C261.893 131.639 263.778 131.586 265.566 131.08C267.392 130.564 269.662 130.131 270.134 131.972L270.577 133.663L271.411 130.14L271.03 108.425V75.6699H288.172V130.14H290.133C291.526 130.14 296.957 130.728 298.88 130.936C299.333 130.984 299.786 130.95 300.225 130.834L301.921 130.381C302.461 130.237 302.861 129.784 302.938 129.23C303.121 127.895 303.439 125.528 303.439 125.109C303.439 124.521 302.813 107.163 302.813 107.163V27.6039H302.808Z" fill="#F8F4E6"/>
<path d="M522.309 20.3217C522.309 20.3217 525.759 18.3459 527.075 16.0134L528.357 13.7436C528.752 13.0448 528.709 12.1774 528.251 11.522L526.964 7.51249C526.41 6.72215 525.596 5.94145 524.627 5.97519C517.051 6.2547 512.304 4.06681 502.088 4.06681C491.871 4.06681 486.199 4.78968 483.881 5.32461C483.433 5.42581 483.067 4.97281 483.26 4.55836L484.484 1.92712L477.356 9.25701C476.749 9.88349 476.465 10.7509 476.585 11.6184L476.946 14.187C477.216 16.1002 478.315 17.7965 479.954 18.823L480.754 19.3242C481.472 19.7723 482.378 19.8013 483.115 19.3916C485.341 18.1531 491.095 15.7291 502.088 15.7291C513.08 15.7291 519.384 17.1507 522.256 17.9411C522.651 18.0471 522.608 18.6206 522.203 18.6688L511.663 21.3578C510.892 21.5554 510.107 21.7 509.321 21.8108C507.827 22.018 506.338 22.2638 504.849 22.5289C501.105 23.459 501.081 24.0132 501.105 24.0951C501.129 24.177 501.746 24.4565 502.107 24.3891C502.141 24.3842 505.36 23.9168 505.538 24.6878C505.625 25.0637 505.399 25.4396 501.673 26.4854C499.832 27.0058 499.784 28.7889 499.693 32.0225V32.1189C500.011 34.5189 500.073 37.0537 500.131 39.5018L500.151 40.1861C500.151 40.6488 500.117 42.268 500.073 44.4896C499.939 51.3376 499.693 64.0793 499.861 65.5251L499.852 65.8094C499.832 66.3588 499.804 66.9853 499.269 66.9853C498.189 66.9853 497.953 62.3686 497.784 48.4895C497.712 42.4849 497.645 36.8079 497.293 35.1839C497.172 34.5911 497.052 33.9647 496.941 33.3285C496.666 31.7864 496.661 31.0635 496.343 31.078C496.03 31.0925 496.088 31.8972 496.006 32.596C496.025 33.6418 496.016 34.6875 496.016 35.7333V128.993C496.016 129.899 496.633 130.689 497.51 130.911L509.1 130.877C510.006 130.68 510.651 129.875 510.651 128.95V24.5095L514.025 22.818C516.618 21.5169 519.417 20.6735 522.299 20.3217H522.309ZM499.534 76.4018C499.375 76.5753 499.196 76.7344 499.004 76.7344C498.975 76.7344 498.946 76.7344 498.917 76.7247C498.82 76.7006 498.69 76.6283 498.633 76.4163C498.633 76.4067 498.401 75.173 498.806 74.7344C499.211 74.3007 499.505 74.5127 499.587 74.585C499.948 74.9176 499.861 76.0452 499.534 76.4018ZM499.688 71.8044C499.572 72.108 499.418 72.4261 499.134 72.4453C499.124 72.4453 499.119 72.4453 499.11 72.4453C499.008 72.4453 498.845 72.4068 498.719 72.1755C498.367 71.5153 498.329 69.072 498.753 68.5033C498.811 68.4214 498.989 68.1852 499.269 68.2238C499.389 68.2383 499.548 68.3105 499.649 68.5611C500.02 69.5153 500.035 70.8791 499.688 71.8092V71.8044Z" fill="#F8F4E6"/>
<path d="M540.183 98.1071C539.161 97.63 537.706 97.3312 536.198 97.0421C533.176 96.459 529.967 95.9096 529.75 94.0446C529.422 91.2881 522.516 85.4328 522.294 85.2545C522.482 85.6304 536.549 115.774 539.296 125.253C539.73 126.762 540.549 128.13 541.653 129.229C542.646 130.222 543.985 130.79 545.392 130.839C546.245 130.868 547.417 130.896 548.906 130.911C549.792 130.916 550.665 130.66 551.397 130.159C554.607 127.962 556.592 124.767 556.038 123.856C549.879 113.851 541.735 98.83 540.183 98.1071V98.1071Z" fill="#F8F4E6"/>
<path d="M518.69 77.1687C518.69 77.1687 516.753 74.2965 517.972 77.4674C519.191 80.6384 520.179 81.6986 520.179 81.6986C520.179 81.6986 521.813 84.3299 520.878 81.4095C520.276 79.5204 518.69 77.1735 518.69 77.1735V77.1687Z" fill="#F8F4E6"/>
<path d="M570.418 7.05502C570.158 6.56347 567.194 5.0358 564.592 5.31049C550.882 6.75623 542.752 6.25504 542.752 6.25504C542.058 6.25504 541.388 6.45263 540.805 6.8237L536.733 9.4212C535.046 10.4959 534.024 12.3609 534.024 14.3608V37.7287C534.024 50.1813 553.884 79.1346 561.816 95.4956C563.435 98.4304 565.113 100.927 565.753 100.927C565.763 100.927 565.773 100.927 565.782 100.927C565.86 100.917 565.937 100.777 565.985 100.56C565.99 100.532 566.606 97.9629 567.426 97.9629H567.435C567.7 97.9678 567.869 98.1798 567.946 98.5943C568.472 102.156 568.192 113.346 568.038 116.806C568.018 117.162 568.018 117.524 568.028 117.88C568.057 118.849 568.047 119.326 567.835 119.538C567.763 119.61 567.672 119.654 567.57 119.654H567.455L567.353 119.562C566.949 119.148 566.24 113.172 566.317 109.987C566.317 107.914 565.98 106.175 565.522 105.852C565.46 105.804 565.402 105.799 565.329 105.828C565.19 105.881 565.103 106.011 565.05 106.329V121.596C565.05 127.003 561.33 130.849 557.2 131.928C559.339 131.928 562.105 130.757 565.879 130.757H570.741C571.286 130.757 571.811 130.569 572.24 130.227L578.452 124.844C579.233 124.218 579.686 123.268 579.686 122.266V99.0665C579.686 86.1224 548.67 44.7887 548.67 31.8446V16.3415C548.67 15.2282 549.359 14.2355 550.405 13.85L557.628 10.785C558 10.6501 558.414 10.8139 558.597 11.1657L562.39 18.6209C563.807 21.4064 564.809 24.3846 565.354 27.464L565.927 30.6832C566.091 31.5892 566.862 32.2687 567.782 32.312L575.18 32.6494C576.158 32.6927 577.074 32.1867 577.551 31.3338C578.172 30.2205 579.069 28.6832 579.787 27.676C580.298 26.9484 580.365 25.999 579.951 25.2135L570.423 7.05502H570.418ZM568.308 123.567V123.591C568.211 123.895 568.043 123.996 567.917 124.03C567.879 124.039 567.84 124.044 567.806 124.044C567.58 124.044 567.406 123.88 567.368 123.842C566.872 123.297 567.112 121.374 567.31 121.047L567.431 120.849L567.705 120.907C568.139 121.075 568.5 122.642 568.312 123.567H568.308Z" fill="#F8F4E6"/>
<path d="M356.093 132.506C356.931 133.986 360.073 135.008 361.317 134.073C361.49 133.624 355.804 130.097 356.093 132.506Z" fill="#F8F4E6"/>
<path d="M377.562 21.1943L369.09 97.5099H362.151C361.548 97.4906 364.343 98.5508 364.218 99.0424L363.437 100.257C363.341 100.633 363.322 101.018 363.37 101.409L363.553 102.83L362.536 105.365L366.372 108.608L367.861 108.628L365.476 130.135L372.526 129.441C373.712 129.326 374.907 129.355 376.087 129.533L379.037 129.976C379.62 130.063 380.155 129.639 380.203 129.051L381.895 108.82L382.656 108.83C383.369 108.84 384.087 108.801 384.796 108.71L387.639 108.348H397.359L399.32 130.135L403.099 129.547C404.294 129.359 405.518 129.504 406.646 129.952C408.361 130.641 410.236 130.849 412.057 130.545L413.219 130.352C413.971 130.227 414.491 129.533 414.399 128.781L400.785 16.886C400.651 15.7969 400.81 14.6885 401.243 13.6765C401.759 12.4669 401.817 11.1127 401.402 9.86935L400.848 8.19712C400.704 7.75858 400.385 7.39714 399.966 7.2092C392.193 3.71051 376.247 7.5369 376.247 7.5369L376.738 8.10555C377.856 9.40672 378.463 11.0645 378.463 12.7656L378.473 12.862C378.536 13.3777 378.671 13.9222 378.786 14.1198C379.003 13.8789 379.167 13.262 379.292 12.7994C379.475 12.1102 379.586 11.6958 379.943 11.6862H379.952C380.266 11.6862 380.449 12.0524 380.651 12.6885C380.786 13.1174 380.613 13.9126 380.41 14.8379C380.304 15.3101 380.198 15.8017 380.145 16.2065C379.904 18.0763 379.933 19.5943 379.967 21.5124C380.005 23.6665 380.054 26.3459 379.721 30.5434C379.658 31.353 379.336 32.7505 379.022 34.0999C378.781 35.1553 378.55 36.1577 378.454 36.8179C378.256 38.1721 378.242 39.5021 378.232 40.7937C378.222 42.1093 378.208 43.3526 378.005 44.5381C377.875 45.3188 377.74 46.1381 377.615 46.938C376.748 52.321 376.593 52.8174 376.169 52.8174C376.165 52.8174 376.16 52.8174 376.15 52.8174C375.822 52.8077 375.755 52.4174 375.702 51.9066C375.504 49.9789 375.726 48.485 375.977 46.7597C376.059 46.1959 376.145 45.608 376.222 44.9718C376.304 44.2923 376.357 43.4297 376.42 42.5141C376.512 41.1358 376.613 39.5744 376.825 38.1528C376.936 37.4155 376.936 36.6155 376.936 35.6854C376.936 34.4035 376.936 32.8132 377.22 30.6301C377.365 29.5025 377.644 28.2254 378.063 26.7218C378.266 26.052 378.198 25.2713 378.15 24.5629C378.078 23.5075 377.943 22.6207 377.846 21.9557C377.707 20.9822 377.61 20.9967 377.572 21.1895L377.562 21.1943ZM382.829 97.5099L386.02 59.3376L388.877 29.3531C388.955 28.529 390.159 28.5338 390.232 29.3531L396.371 97.5099H382.829V97.5099Z" fill="#F8F4E6"/>
<path d="M471.048 7.6476L467.91 7.8982C466.508 8.00904 465.111 7.6717 463.915 6.92955L462.855 6.27415C462.103 5.8067 461.231 5.57056 460.349 5.58984L437.314 6.10067C436.803 6.1103 436.292 6.10067 435.786 6.06693L424.933 5.3537C423.936 5.28623 422.938 5.48864 422.042 5.93681L417.989 7.95603C416.833 8.53432 416.028 9.64272 415.84 10.9198L415.459 13.5269C415.339 14.3414 415.599 15.1654 416.158 15.763L419.396 18.8521L420.76 20.6351C421.816 21.7194 423.324 22.2303 424.823 22.0182L426.114 21.8351V99.3218L425.411 127.808C425.377 129.263 426.066 130.641 427.251 131.485L428.861 132.627C429.69 133.215 430.794 133.253 431.661 132.718L435.863 130.135H440.75V72.2479L446.277 76.1177L456.865 130.347L458.73 130.897L467.236 130.121L471.043 130.347L461.901 84.0259L463.655 82.2717C467.703 78.2237 469.978 72.7298 469.978 67.0047V16.2787C469.978 15.3245 469.65 14.3703 468.971 13.7004C468.19 12.9294 468.089 11.7053 468.735 10.8186L471.038 7.6476H471.048ZM455.347 61.2121C455.347 66.9373 450.162 76.7924 450.162 76.7924L447.299 74.6864C447.299 74.6864 440.759 59.9495 440.759 58.258V19.7436L452.6 18.0521L453.111 18.5629C454.547 19.999 455.352 21.9459 455.352 23.9748V61.2121H455.347Z" fill="#F8F4E6"/>
<path d="M350.657 96.7479C350.657 96.7479 351.206 97.2973 351.712 97.0852C352.218 96.8732 351.837 96.7045 351.712 96.3672C351.587 96.0299 350.743 96.6178 350.657 96.7479V96.7479Z" fill="#F8F4E6"/>
<path d="M585.324 118.825C588.075 121.437 585.464 124.55 583.362 120.483C582.64 119.08 583.729 118.054 583.965 117.62C584.201 117.187 584.977 118.676 585.324 118.825Z" fill="#F8F4E6"/>
</g>
<defs>
<clipPath id="clip0_3623_4101">
<rect width="600" height="214.865" fill="white"/>
</clipPath>
</defs>
</svg>
